<svg xmlns="http://www.w3.org/2000/svg" xmlns:xlink="http://www.w3.org/1999/xlink" id="&#x5716;&#x5C64;_1" x="0px" y="0px" viewBox="0 0 848.1 172.9" style="enable-background:new 0 0 848.1 172.9;" xml:space="preserve"><style type="text/css">	.st0{display:none;fill:#FFFFFF;}	.st1{fill:none;}	.st2{fill:#FFFFFF;}	.st3{clip-path:url(#SVGID_2_);}	.st4{fill:#2990D0;}	.st5{clip-path:url(#SVGID_4_);}</style><g>	<g>		<g>			<path d="M192.7,63.2h24v8.2H201v8h15.7v8H201V99h15.7v8.2h-24V63.2z"></path>			<path d="M255.5,81.3l-6.8,3.7c-1.3-1.3-2.5-2.3-3.8-2.8c-1.3-0.5-2.7-0.8-4.4-0.8c-3.1,0-5.5,0.9-7.4,2.7c-1.9,1.8-2.8,4.2-2.8,7    c0,2.8,0.9,5,2.7,6.8c1.8,1.8,4.2,2.6,7.1,2.6c3.7,0,6.5-1.2,8.5-3.7l6.4,4.4c-3.5,4.5-8.4,6.8-14.8,6.8    c-5.7,0-10.2-1.7-13.5-5.1c-3.2-3.4-4.9-7.4-4.9-11.9c0-3.2,0.8-6.1,2.4-8.7c1.6-2.7,3.8-4.7,6.6-6.3c2.8-1.5,6-2.3,9.5-2.3    c3.2,0,6.1,0.6,8.7,1.9C251.7,77.1,253.8,78.9,255.5,81.3z"></path>			<path d="M280.3,63.2h8.3v44h-8.3V63.2z"></path>			<path d="M297.1,74.7h8.2V78c1.8-1.6,3.5-2.6,5-3.3c1.5-0.6,3-0.9,4.6-0.9c3.2,0,6,1.1,8.2,3.4c1.9,1.9,2.8,4.7,2.8,8.5v21.5h-8.1    V93c0-3.9-0.2-6.5-0.5-7.7c-0.3-1.3-0.9-2.2-1.8-2.9c-0.9-0.7-1.9-1-3.2-1c-1.7,0-3.1,0.6-4.3,1.7c-1.2,1.1-2,2.6-2.5,4.6    c-0.2,1-0.3,3.2-0.3,6.6v13.1h-8.2V74.7z"></path>			<path d="M330,74.7h2.9c0-4.3,0.1-6.8,0.2-7.6c0.2-1.8,1-3.2,2.3-4.3c1.3-1.1,3.1-1.6,5.5-1.6c1.7,0,3.6,0.4,5.7,1.2v6.2    c-1.2-0.3-2.1-0.5-2.9-0.5c-1,0-1.6,0.2-2.1,0.6c-0.3,0.3-0.5,0.9-0.5,1.9l0,4.1h5.2v6.9h-5.2v25.6h-8.2V81.6H330V74.7z"></path>			<path d="M366.4,73.8c3.1,0,6,0.8,8.7,2.3c2.7,1.5,4.8,3.6,6.3,6.3c1.5,2.6,2.3,5.5,2.3,8.5c0,3.1-0.8,5.9-2.3,8.6    c-1.5,2.7-3.6,4.8-6.2,6.3c-2.6,1.5-5.5,2.3-8.7,2.3c-4.7,0-8.7-1.7-12-5c-3.3-3.3-5-7.4-5-12.1c0-5.1,1.9-9.3,5.6-12.7    C358.3,75.3,362.1,73.8,366.4,73.8z M366.5,81.5c-2.5,0-4.7,0.9-6.3,2.7c-1.7,1.8-2.5,4-2.5,6.8c0,2.8,0.8,5.1,2.5,6.9    c1.7,1.8,3.8,2.6,6.3,2.6c2.6,0,4.7-0.9,6.4-2.7c1.7-1.8,2.5-4.1,2.5-6.8c0-2.8-0.8-5.1-2.5-6.8    C371.2,82.4,369.1,81.5,366.5,81.5z"></path>			<path d="M386.9,63.2h24.3v8.3h-8v35.8h-8.5V71.5h-7.8V63.2z"></path>			<path d="M448.7,93.3h-26.2c0.4,2.3,1.4,4.2,3,5.5c1.6,1.4,3.7,2.1,6.3,2.1c3.1,0,5.7-1.1,7.9-3.2l6.9,3.2    c-1.7,2.4-3.8,4.2-6.2,5.4c-2.4,1.2-5.2,1.7-8.5,1.7c-5.1,0-9.3-1.6-12.5-4.8c-3.2-3.2-4.8-7.3-4.8-12.1c0-5,1.6-9.1,4.8-12.4    c3.2-3.3,7.2-4.9,12-4.9c5.1,0,9.3,1.6,12.5,4.9c3.2,3.3,4.8,7.6,4.8,13L448.7,93.3z M440.5,86.9c-0.5-1.8-1.6-3.3-3.2-4.4    c-1.6-1.1-3.4-1.7-5.5-1.7c-2.3,0-4.3,0.6-6,1.9c-1.1,0.8-2.1,2.2-3,4.2H440.5z"></path>			<path d="M487.1,81.3l-6.8,3.7c-1.3-1.3-2.5-2.3-3.8-2.8c-1.3-0.5-2.7-0.8-4.4-0.8c-3.1,0-5.5,0.9-7.4,2.7c-1.9,1.8-2.8,4.2-2.8,7    c0,2.8,0.9,5,2.7,6.8c1.8,1.8,4.2,2.6,7.2,2.6c3.7,0,6.5-1.2,8.5-3.7l6.4,4.4c-3.5,4.5-8.4,6.8-14.8,6.8    c-5.7,0-10.2-1.7-13.5-5.1c-3.2-3.4-4.9-7.4-4.9-11.9c0-3.2,0.8-6.1,2.4-8.7c1.6-2.7,3.8-4.7,6.6-6.3c2.8-1.5,6-2.3,9.5-2.3    c3.2,0,6.1,0.6,8.7,1.9C483.4,77.1,485.5,78.9,487.1,81.3z"></path>			<path d="M494.5,62.1h8.1V78c1.6-1.4,3.2-2.4,4.8-3.1c1.6-0.7,3.3-1,4.9-1c3.2,0,6,1.1,8.2,3.4c1.9,1.9,2.8,4.8,2.8,8.5v21.5h-8    V93c0-3.8-0.2-6.3-0.5-7.7c-0.4-1.3-1-2.3-1.8-3c-0.9-0.7-1.9-1-3.2-1c-1.7,0-3.1,0.5-4.3,1.6c-1.2,1.1-2,2.6-2.5,4.5    c-0.2,1-0.4,3.2-0.4,6.7v13.1h-8.1V62.1z"></path>			<path d="M549.5,63.2h4.4V103h16.9v4.2h-21.3V63.2z"></path>			<path d="M578.6,61.3c0.9,0,1.8,0.3,2.4,1c0.7,0.7,1,1.5,1,2.5c0,0.9-0.3,1.7-1,2.4c-0.7,0.7-1.5,1-2.4,1c-0.9,0-1.7-0.3-2.4-1    c-0.7-0.7-1-1.5-1-2.4c0-1,0.3-1.8,1-2.5C576.8,61.6,577.6,61.3,578.6,61.3z M576.5,74.7h4.2v32.6h-4.2V74.7z"></path>			<path d="M589.3,74.7h4.2v5.6c1.5-2.1,3-3.6,4.5-4.5c2.1-1.3,4.3-1.9,6.7-1.9c1.6,0,3.1,0.3,4.5,0.9c1.4,0.6,2.6,1.4,3.5,2.5    c0.9,1,1.7,2.5,2.3,4.4c1.4-2.6,3.1-4.5,5.2-5.8c2.1-1.3,4.3-2,6.7-2c2.3,0,4.3,0.6,6,1.7c1.7,1.1,3,2.7,3.8,4.8    c0.8,2,1.3,5.1,1.3,9.2v17.8h-4.3V89.5c0-3.5-0.3-5.9-0.7-7.2c-0.5-1.3-1.4-2.4-2.6-3.2c-1.2-0.8-2.6-1.2-4.3-1.2    c-2,0-3.9,0.6-5.6,1.8c-1.7,1.2-2.9,2.8-3.7,4.8c-0.8,2-1.2,5.3-1.2,10v12.7h-4.2V90.6c0-3.9-0.2-6.6-0.7-8    c-0.5-1.4-1.3-2.5-2.6-3.4c-1.2-0.8-2.7-1.3-4.3-1.3c-1.9,0-3.8,0.6-5.4,1.8c-1.7,1.2-2.9,2.7-3.7,4.7c-0.8,2-1.2,5-1.2,9.1v13.8    h-4.2V74.7z"></path>			<path d="M648.3,61.3c1,0,1.8,0.3,2.4,1c0.7,0.7,1,1.5,1,2.5c0,0.9-0.3,1.7-1,2.4c-0.7,0.7-1.5,1-2.4,1c-0.9,0-1.7-0.3-2.4-1    c-0.7-0.7-1-1.5-1-2.4c0-1,0.3-1.8,1-2.5C646.6,61.6,647.4,61.3,648.3,61.3z M646.2,74.7h4.2v32.6h-4.2V74.7z"></path>			<path d="M662.8,62.6h4.2v12.1h6.6v3.6H667v28.9h-4.2V78.3h-5.7v-3.6h5.7V62.6z"></path>			<path d="M707.3,96.4l3.5,1.9c-1.2,2.3-2.5,4.1-4,5.5c-1.5,1.4-3.2,2.5-5.1,3.2c-1.9,0.7-4,1.1-6.4,1.1c-5.3,0-9.5-1.7-12.5-5.2    c-3-3.5-4.5-7.4-4.5-11.8c0-4.1,1.3-7.8,3.8-11c3.2-4.1,7.5-6.2,12.9-6.2c5.6,0,10,2.1,13.3,6.3c2.4,3,3.6,6.7,3.6,11.1h-29.3    c0.1,3.8,1.3,6.9,3.6,9.3c2.3,2.4,5.2,3.6,8.7,3.6c1.6,0,3.3-0.3,4.8-0.9c1.6-0.6,2.9-1.3,4-2.3C704.8,100.1,706,98.5,707.3,96.4    z M707.3,87.7c-0.6-2.2-1.4-4-2.4-5.4c-1.1-1.3-2.5-2.4-4.2-3.2c-1.8-0.8-3.6-1.2-5.6-1.2c-3.2,0-5.9,1-8.2,3.1    c-1.7,1.5-3,3.7-3.8,6.7H707.3z"></path>			<path d="M752.2,62.1v45.1h-4.1v-5.6c-1.8,2.1-3.7,3.7-5.9,4.8c-2.2,1.1-4.6,1.6-7.2,1.6c-4.6,0-8.5-1.7-11.8-5    c-3.3-3.3-4.9-7.4-4.9-12.2c0-4.7,1.6-8.7,4.9-12c3.3-3.3,7.2-5,11.9-5c2.7,0,5.1,0.6,7.2,1.7c2.2,1.1,4.1,2.8,5.7,5.1V62.1    H752.2z M735.5,77.9c-2.3,0-4.5,0.6-6.5,1.7c-2,1.2-3.5,2.8-4.7,4.8c-1.2,2.1-1.7,4.3-1.7,6.6c0,2.3,0.6,4.5,1.8,6.6    c1.2,2.1,2.8,3.7,4.7,4.9c2,1.2,4.1,1.8,6.4,1.8c2.3,0,4.5-0.6,6.5-1.7c2.1-1.1,3.6-2.7,4.7-4.7c1.1-2,1.6-4.2,1.6-6.7    c0-3.8-1.2-6.9-3.7-9.4C742.2,79.1,739.1,77.9,735.5,77.9z"></path>		</g>		<g>			<g>				<path d="M198.8,145.2h-1.9c-1-1.5-1.8-3.1-2.3-4.8c-0.5-1.7-0.8-3.3-0.8-4.8c0-1.9,0.3-3.7,1-5.5c0.6-1.5,1.3-2.9,2.2-4.1h1.9     c-0.9,2-1.5,3.7-1.9,5.1c-0.3,1.4-0.5,2.9-0.5,4.5c0,1.1,0.1,2.2,0.3,3.4c0.2,1.1,0.5,2.2,0.8,3.3     C197.8,143,198.2,144,198.8,145.2z"></path>				<path d="M214.3,140.9h-3.2l-1.3-3.3H204l-1.2,3.3h-3.1l5.7-14.6h3.1L214.3,140.9z M208.9,135.1l-2-5.4l-2,5.4H208.9z"></path>				<path d="M221,130.3h2.6v1.4c0.9-1.1,2-1.7,3.3-1.7c0.7,0,1.3,0.1,1.8,0.4c0.5,0.3,0.9,0.7,1.2,1.3c0.5-0.6,1-1,1.5-1.3     c0.5-0.3,1.1-0.4,1.7-0.4c0.8,0,1.4,0.2,2,0.5c0.5,0.3,0.9,0.8,1.2,1.4c0.2,0.5,0.3,1.2,0.3,2.2v6.8h-2.8v-6.1     c0-1.1-0.1-1.7-0.3-2c-0.3-0.4-0.7-0.6-1.2-0.6c-0.4,0-0.8,0.1-1.1,0.4c-0.3,0.2-0.6,0.6-0.7,1.1c-0.2,0.5-0.2,1.2-0.2,2.2v5.1     h-2.8v-5.8c0-1,0-1.7-0.1-2c-0.1-0.3-0.3-0.5-0.5-0.7s-0.5-0.2-0.9-0.2c-0.4,0-0.8,0.1-1.2,0.3c-0.3,0.2-0.6,0.6-0.7,1     c-0.1,0.4-0.2,1.2-0.2,2.2v5.2H221V130.3z"></path>				<path d="M245.7,137.6l2.8,0.5c-0.4,1-0.9,1.8-1.7,2.3c-0.8,0.5-1.7,0.8-2.9,0.8c-1.8,0-3.2-0.6-4.1-1.8c-0.7-1-1-2.2-1-3.7     c0-1.8,0.5-3.1,1.4-4.1c0.9-1,2.1-1.5,3.5-1.5c1.6,0,2.8,0.5,3.7,1.6s1.3,2.6,1.3,4.8h-7c0,0.8,0.2,1.5,0.7,1.9     c0.4,0.5,1,0.7,1.6,0.7c0.4,0,0.8-0.1,1.1-0.4C245.4,138.5,245.6,138.1,245.7,137.6z M245.9,134.7c0-0.8-0.2-1.4-0.6-1.9     c-0.4-0.4-0.9-0.6-1.5-0.6c-0.6,0-1.1,0.2-1.5,0.7c-0.4,0.4-0.6,1.1-0.6,1.8H245.9z"></path>				<path d="M251,130.3h2.6v1.4c0.9-1.1,2-1.7,3.3-1.7c0.7,0,1.3,0.1,1.8,0.4c0.5,0.3,0.9,0.7,1.2,1.3c0.5-0.6,1-1,1.5-1.3     c0.5-0.3,1.1-0.4,1.7-0.4c0.8,0,1.4,0.2,2,0.5c0.5,0.3,0.9,0.8,1.2,1.4c0.2,0.5,0.3,1.2,0.3,2.2v6.8h-2.8v-6.1     c0-1.1-0.1-1.7-0.3-2c-0.3-0.4-0.7-0.6-1.2-0.6c-0.4,0-0.8,0.1-1.1,0.4c-0.3,0.2-0.6,0.6-0.7,1.1c-0.2,0.5-0.2,1.2-0.2,2.2v5.1     h-2.8v-5.8c0-1,0-1.7-0.1-2c-0.1-0.3-0.3-0.5-0.5-0.7s-0.5-0.2-0.9-0.2c-0.4,0-0.8,0.1-1.2,0.3c-0.3,0.2-0.6,0.6-0.7,1     c-0.1,0.4-0.2,1.2-0.2,2.2v5.2H251V130.3z"></path>				<path d="M269.4,140.9v-14.6h2.8v5.3c0.9-1,1.9-1.5,3.1-1.5c1.3,0,2.4,0.5,3.2,1.4c0.8,0.9,1.3,2.3,1.3,4c0,1.8-0.4,3.2-1.3,4.2     c-0.9,1-1.9,1.5-3.1,1.5c-0.6,0-1.2-0.2-1.8-0.5s-1.1-0.8-1.5-1.3v1.6H269.4z M272.2,135.4c0,1.1,0.2,1.9,0.5,2.4     c0.5,0.7,1.1,1.1,1.9,1.1c0.6,0,1.1-0.3,1.6-0.8c0.4-0.5,0.7-1.4,0.7-2.5c0-1.2-0.2-2.1-0.7-2.6c-0.4-0.5-1-0.8-1.7-0.8     c-0.7,0-1.2,0.3-1.7,0.8S272.2,134.3,272.2,135.4z"></path>				<path d="M288.4,137.6l2.8,0.5c-0.4,1-0.9,1.8-1.7,2.3c-0.8,0.5-1.7,0.8-2.9,0.8c-1.8,0-3.2-0.6-4.1-1.8c-0.7-1-1-2.2-1-3.7     c0-1.8,0.5-3.1,1.4-4.1c0.9-1,2.1-1.5,3.5-1.5c1.6,0,2.8,0.5,3.7,1.6s1.3,2.6,1.3,4.8h-7c0,0.8,0.2,1.5,0.7,1.9     c0.4,0.5,1,0.7,1.6,0.7c0.4,0,0.8-0.1,1.1-0.4C288,138.5,288.2,138.1,288.4,137.6z M288.5,134.7c0-0.8-0.2-1.4-0.6-1.9     c-0.4-0.4-0.9-0.6-1.5-0.6c-0.6,0-1.1,0.2-1.5,0.7c-0.4,0.4-0.6,1.1-0.6,1.8H288.5z"></path>				<path d="M296.5,140.9h-2.8v-10.6h2.6v1.5c0.4-0.7,0.8-1.2,1.2-1.4s0.8-0.3,1.2-0.3c0.6,0,1.3,0.2,1.8,0.5l-0.9,2.4     c-0.5-0.3-0.9-0.5-1.3-0.5c-0.4,0-0.7,0.1-1,0.3c-0.3,0.2-0.5,0.6-0.6,1.2s-0.2,1.8-0.2,3.6V140.9z"></path>				<path d="M307.2,135.5c0-0.9,0.2-1.8,0.7-2.7c0.5-0.9,1.1-1.5,2-2c0.8-0.5,1.8-0.7,2.8-0.7c1.6,0,2.9,0.5,3.9,1.6     s1.5,2.4,1.5,3.9c0,1.6-0.5,2.9-1.6,4s-2.3,1.6-3.9,1.6c-1,0-1.9-0.2-2.8-0.7c-0.9-0.4-1.6-1.1-2-1.9     C307.4,137.7,307.2,136.7,307.2,135.5z M310.1,135.6c0,1.1,0.2,1.9,0.7,2.4c0.5,0.6,1.1,0.8,1.8,0.8s1.3-0.3,1.8-0.8     c0.5-0.6,0.7-1.4,0.7-2.4c0-1-0.2-1.8-0.7-2.4c-0.5-0.6-1.1-0.8-1.8-0.8s-1.3,0.3-1.8,0.8C310.3,133.8,310.1,134.6,310.1,135.6z     "></path>				<path d="M319.3,130.3h1.6v-0.8c0-0.9,0.1-1.6,0.3-2c0.2-0.4,0.5-0.8,1-1.1c0.5-0.3,1.2-0.4,1.9-0.4c0.8,0,1.6,0.1,2.3,0.4     l-0.4,2c-0.4-0.1-0.9-0.2-1.3-0.2c-0.4,0-0.7,0.1-0.9,0.3s-0.3,0.6-0.3,1.1v0.7h2.1v2.2h-2.1v8.4h-2.8v-8.4h-1.6V130.3z"></path>				<path d="M333.5,140.9v-14.6h10.8v2.5h-7.9v3.2h7.3v2.5h-7.3v4h8.2v2.5H333.5z"></path>				<path d="M356.7,135.5l2.9,0.9c-0.4,1.6-1.2,2.8-2.2,3.6c-1,0.8-2.3,1.2-3.9,1.2c-1.9,0-3.5-0.7-4.8-2c-1.3-1.3-1.9-3.1-1.9-5.4     c0-2.4,0.6-4.3,1.9-5.7c1.3-1.3,2.9-2,5-2c1.8,0,3.2,0.5,4.4,1.6c0.7,0.6,1.2,1.5,1.5,2.7l-2.9,0.7c-0.2-0.8-0.5-1.4-1.1-1.8     c-0.5-0.4-1.2-0.7-2-0.7c-1.1,0-2,0.4-2.6,1.2c-0.7,0.8-1,2-1,3.8c0,1.9,0.3,3.2,1,4c0.7,0.8,1.5,1.2,2.6,1.2     c0.8,0,1.5-0.3,2-0.7S356.4,136.6,356.7,135.5z"></path>				<path d="M362.2,140.9v-14.6h3v14.6H362.2z"></path>				<path d="M377.3,140.9v-12.2H373v-2.5h11.6v2.5h-4.3v12.2H377.3z"></path>				<path d="M391.3,137.6l2.8,0.5c-0.4,1-0.9,1.8-1.7,2.3c-0.8,0.5-1.7,0.8-2.9,0.8c-1.8,0-3.2-0.6-4.1-1.8c-0.7-1-1-2.2-1-3.7     c0-1.8,0.5-3.1,1.4-4.1c0.9-1,2.1-1.5,3.5-1.5c1.6,0,2.8,0.5,3.7,1.6c0.9,1,1.3,2.6,1.3,4.8h-7c0,0.8,0.2,1.5,0.7,1.9     c0.4,0.5,1,0.7,1.6,0.7c0.4,0,0.8-0.1,1.1-0.4C391,138.5,391.2,138.1,391.3,137.6z M391.5,134.7c0-0.8-0.2-1.4-0.6-1.9     s-0.9-0.6-1.5-0.6c-0.6,0-1.1,0.2-1.5,0.7c-0.4,0.4-0.6,1.1-0.6,1.8H391.5z"></path>				<path d="M406,133.5l-2.8,0.5c-0.1-0.6-0.3-1-0.6-1.2c-0.3-0.3-0.8-0.4-1.3-0.4c-0.7,0-1.3,0.2-1.7,0.7s-0.6,1.3-0.6,2.4     c0,1.3,0.2,2.1,0.6,2.7c0.4,0.5,1,0.8,1.7,0.8c0.5,0,1-0.2,1.3-0.5c0.3-0.3,0.6-0.8,0.7-1.6l2.8,0.5c-0.3,1.3-0.8,2.2-1.6,2.9     c-0.8,0.6-1.9,1-3.3,1c-1.5,0-2.8-0.5-3.7-1.5c-0.9-1-1.4-2.3-1.4-4.1c0-1.8,0.5-3.1,1.4-4.1c0.9-1,2.2-1.5,3.8-1.5     c1.3,0,2.3,0.3,3.1,0.8C405.1,131.5,405.7,132.3,406,133.5z"></path>				<path d="M411.1,126.3v5.4c0.9-1.1,2-1.6,3.2-1.6c0.6,0,1.2,0.1,1.7,0.4c0.5,0.2,0.9,0.5,1.2,0.9c0.3,0.4,0.4,0.8,0.5,1.2     c0.1,0.5,0.1,1.2,0.1,2.1v6.2h-2.8v-5.6c0-1.1-0.1-1.8-0.2-2.1c-0.1-0.3-0.3-0.5-0.6-0.7c-0.3-0.2-0.6-0.3-1-0.3     c-0.5,0-0.9,0.1-1.2,0.3c-0.4,0.2-0.6,0.6-0.8,1s-0.3,1.1-0.3,2v5.3h-2.8v-14.6H411.1z"></path>				<path d="M430.7,140.9h-2.8v-5.4c0-1.1-0.1-1.9-0.2-2.2c-0.1-0.3-0.3-0.6-0.6-0.8s-0.6-0.3-1-0.3c-0.5,0-0.9,0.1-1.3,0.4     c-0.4,0.3-0.7,0.6-0.8,1.1c-0.1,0.4-0.2,1.3-0.2,2.4v4.8H421v-10.6h2.6v1.6c0.9-1.2,2.1-1.8,3.5-1.8c0.6,0,1.2,0.1,1.7,0.3     c0.5,0.2,0.9,0.5,1.2,0.9c0.3,0.3,0.4,0.7,0.5,1.2c0.1,0.4,0.2,1.1,0.2,1.9V140.9z"></path>				<path d="M433.1,135.5c0-0.9,0.2-1.8,0.7-2.7c0.5-0.9,1.1-1.5,2-2c0.8-0.5,1.8-0.7,2.8-0.7c1.6,0,2.9,0.5,3.9,1.6     s1.5,2.4,1.5,3.9c0,1.6-0.5,2.9-1.6,4c-1,1.1-2.3,1.6-3.9,1.6c-1,0-1.9-0.2-2.8-0.7c-0.9-0.4-1.6-1.1-2-1.9     S433.1,136.7,433.1,135.5z M436,135.6c0,1.1,0.2,1.9,0.7,2.4c0.5,0.6,1.1,0.8,1.8,0.8s1.3-0.3,1.8-0.8c0.5-0.6,0.7-1.4,0.7-2.4     c0-1-0.2-1.8-0.7-2.4c-0.5-0.6-1.1-0.8-1.8-0.8s-1.3,0.3-1.8,0.8C436.2,133.8,436,134.6,436,135.6z"></path>				<path d="M446.4,140.9v-14.6h2.8v14.6H446.4z"></path>				<path d="M451.7,135.5c0-0.9,0.2-1.8,0.7-2.7c0.5-0.9,1.1-1.5,2-2c0.8-0.5,1.8-0.7,2.8-0.7c1.6,0,2.9,0.5,3.9,1.6     s1.5,2.4,1.5,3.9c0,1.6-0.5,2.9-1.6,4c-1,1.1-2.3,1.6-3.9,1.6c-1,0-1.9-0.2-2.8-0.7c-0.9-0.4-1.6-1.1-2-1.9     S451.7,136.7,451.7,135.5z M454.5,135.6c0,1.1,0.2,1.9,0.7,2.4c0.5,0.6,1.1,0.8,1.8,0.8s1.3-0.3,1.8-0.8     c0.5-0.6,0.7-1.4,0.7-2.4c0-1-0.2-1.8-0.7-2.4c-0.5-0.6-1.1-0.8-1.8-0.8s-1.3,0.3-1.8,0.8C454.8,133.8,454.5,134.6,454.5,135.6z     "></path>				<path d="M464.7,141.6l3.2,0.4c0.1,0.4,0.2,0.6,0.4,0.8c0.3,0.2,0.7,0.3,1.3,0.3c0.7,0,1.3-0.1,1.6-0.3c0.2-0.1,0.4-0.4,0.6-0.7     c0.1-0.2,0.1-0.7,0.1-1.3v-1.5c-0.8,1.1-1.9,1.7-3.2,1.7c-1.4,0-2.6-0.6-3.4-1.8c-0.7-1-1-2.1-1-3.6c0-1.8,0.4-3.1,1.3-4.1     c0.9-0.9,1.9-1.4,3.2-1.4c1.3,0,2.4,0.6,3.2,1.7v-1.5h2.6v9.5c0,1.3-0.1,2.2-0.3,2.8c-0.2,0.6-0.5,1.1-0.9,1.5     c-0.4,0.4-0.9,0.6-1.5,0.8c-0.6,0.2-1.4,0.3-2.4,0.3c-1.8,0-3.1-0.3-3.8-0.9c-0.8-0.6-1.1-1.4-1.1-2.3     C464.7,141.9,464.7,141.8,464.7,141.6z M467.2,135.4c0,1.1,0.2,1.9,0.7,2.5c0.4,0.5,1,0.8,1.6,0.8c0.7,0,1.3-0.3,1.7-0.8     c0.5-0.5,0.7-1.3,0.7-2.4c0-1.1-0.2-1.9-0.7-2.4c-0.5-0.5-1-0.8-1.7-0.8c-0.7,0-1.2,0.3-1.7,0.8     C467.5,133.5,467.2,134.3,467.2,135.4z"></path>				<path d="M476.4,130.3h3l2.5,7.5l2.5-7.5h2.9l-3.7,10.2l-0.7,1.8c-0.2,0.6-0.5,1.1-0.7,1.4s-0.5,0.6-0.8,0.8s-0.6,0.4-1.1,0.5     c-0.4,0.1-0.9,0.2-1.4,0.2c-0.5,0-1.1-0.1-1.6-0.2l-0.3-2.2c0.4,0.1,0.8,0.1,1.2,0.1c0.7,0,1.1-0.2,1.4-0.6     c0.3-0.4,0.6-0.9,0.7-1.5L476.4,130.3z"></path>				<path d="M495.2,140.9v-14.6h3v5.8h5.8v-5.8h3v14.6h-3v-6.4h-5.8v6.4H495.2z"></path>				<path d="M509.5,135.5c0-0.9,0.2-1.8,0.7-2.7c0.5-0.9,1.1-1.5,2-2c0.8-0.5,1.8-0.7,2.8-0.7c1.6,0,2.9,0.5,3.9,1.6     s1.5,2.4,1.5,3.9c0,1.6-0.5,2.9-1.6,4c-1,1.1-2.3,1.6-3.9,1.6c-1,0-1.9-0.2-2.8-0.7c-0.9-0.4-1.6-1.1-2-1.9     S509.5,136.7,509.5,135.5z M512.3,135.6c0,1.1,0.2,1.9,0.7,2.4c0.5,0.6,1.1,0.8,1.8,0.8s1.3-0.3,1.8-0.8     c0.5-0.6,0.7-1.4,0.7-2.4c0-1-0.2-1.8-0.7-2.4c-0.5-0.6-1.1-0.8-1.8-0.8s-1.3,0.3-1.8,0.8C512.6,133.8,512.3,134.6,512.3,135.6z     "></path>				<path d="M522.8,140.9v-14.6h2.8v14.6H522.8z"></path>				<path d="M538.4,140.9h-2.6v-1.6c-0.4,0.6-0.9,1.1-1.5,1.4c-0.6,0.3-1.2,0.4-1.8,0.4c-1.2,0-2.3-0.5-3.1-1.5     c-0.9-1-1.3-2.4-1.3-4.1c0-1.8,0.4-3.2,1.3-4.1c0.8-0.9,1.9-1.4,3.2-1.4c1.2,0,2.2,0.5,3.1,1.5v-5.3h2.8V140.9z M530.9,135.4     c0,1.1,0.2,1.9,0.5,2.5c0.5,0.7,1.1,1.1,1.9,1.1c0.6,0,1.2-0.3,1.6-0.8c0.5-0.5,0.7-1.4,0.7-2.5c0-1.2-0.2-2.1-0.7-2.6     c-0.4-0.5-1-0.8-1.7-0.8c-0.7,0-1.2,0.3-1.7,0.8C531.1,133.6,530.9,134.3,530.9,135.4z"></path>				<path d="M541.4,128.9v-2.6h2.8v2.6H541.4z M541.4,140.9v-10.6h2.8v10.6H541.4z"></path>				<path d="M556.9,140.9h-2.8v-5.4c0-1.1-0.1-1.9-0.2-2.2c-0.1-0.3-0.3-0.6-0.6-0.8s-0.6-0.3-1-0.3c-0.5,0-0.9,0.1-1.3,0.4     c-0.4,0.3-0.7,0.6-0.8,1.1c-0.1,0.4-0.2,1.3-0.2,2.4v4.8h-2.8v-10.6h2.6v1.6c0.9-1.2,2.1-1.8,3.5-1.8c0.6,0,1.2,0.1,1.7,0.3     c0.5,0.2,0.9,0.5,1.2,0.9c0.3,0.3,0.4,0.7,0.5,1.2c0.1,0.4,0.2,1.1,0.2,1.9V140.9z"></path>				<path d="M559.7,141.6l3.2,0.4c0.1,0.4,0.2,0.6,0.4,0.8c0.3,0.2,0.7,0.3,1.3,0.3c0.7,0,1.3-0.1,1.6-0.3c0.2-0.1,0.4-0.4,0.6-0.7     c0.1-0.2,0.1-0.7,0.1-1.3v-1.5c-0.8,1.1-1.9,1.7-3.2,1.7c-1.4,0-2.6-0.6-3.4-1.8c-0.7-1-1-2.1-1-3.6c0-1.8,0.4-3.1,1.3-4.1     c0.9-0.9,1.9-1.4,3.2-1.4c1.3,0,2.4,0.6,3.2,1.7v-1.5h2.6v9.5c0,1.3-0.1,2.2-0.3,2.8c-0.2,0.6-0.5,1.1-0.9,1.5     c-0.4,0.4-0.9,0.6-1.5,0.8c-0.6,0.2-1.4,0.3-2.4,0.3c-1.8,0-3.1-0.3-3.8-0.9c-0.8-0.6-1.1-1.4-1.1-2.3     C559.7,141.9,559.7,141.8,559.7,141.6z M562.2,135.4c0,1.1,0.2,1.9,0.7,2.5c0.4,0.5,1,0.8,1.6,0.8c0.7,0,1.3-0.3,1.7-0.8     c0.5-0.5,0.7-1.3,0.7-2.4c0-1.1-0.2-1.9-0.7-2.4c-0.5-0.5-1-0.8-1.7-0.8c-0.7,0-1.2,0.3-1.7,0.8     C562.4,133.5,562.2,134.3,562.2,135.4z"></path>				<path d="M571.7,137.9l2.8-0.4c0.1,0.5,0.4,1,0.7,1.2c0.4,0.3,0.9,0.4,1.5,0.4c0.7,0,1.3-0.1,1.6-0.4c0.2-0.2,0.4-0.4,0.4-0.7     c0-0.2-0.1-0.4-0.2-0.5c-0.1-0.1-0.5-0.3-0.9-0.4c-2.3-0.5-3.7-1-4.3-1.4c-0.8-0.6-1.3-1.4-1.3-2.4c0-0.9,0.4-1.7,1.1-2.3     c0.7-0.6,1.8-0.9,3.4-0.9c1.5,0,2.5,0.2,3.2,0.7c0.7,0.5,1.2,1.2,1.5,2.1l-2.6,0.5c-0.1-0.4-0.3-0.7-0.6-0.9     c-0.3-0.2-0.8-0.3-1.4-0.3c-0.7,0-1.3,0.1-1.6,0.3c-0.2,0.1-0.3,0.3-0.3,0.6c0,0.2,0.1,0.4,0.3,0.5c0.3,0.2,1.1,0.4,2.6,0.8     c1.5,0.3,2.5,0.8,3.1,1.2c0.6,0.5,0.9,1.2,0.9,2.1c0,1-0.4,1.8-1.2,2.5c-0.8,0.7-2,1-3.6,1c-1.4,0-2.6-0.3-3.4-0.9     S571.9,138.9,571.7,137.9z"></path>				<path d="M590.2,140.9v-14.5h3v12h7.3v2.5H590.2z"></path>				<path d="M602.8,128.9v-2.6h2.8v2.6H602.8z M602.8,140.9v-10.6h2.8v10.6H602.8z"></path>				<path d="M608.5,130.3h2.6v1.4c0.9-1.1,2-1.7,3.3-1.7c0.7,0,1.3,0.1,1.8,0.4c0.5,0.3,0.9,0.7,1.2,1.3c0.5-0.6,1-1,1.5-1.3     c0.5-0.3,1.1-0.4,1.7-0.4c0.8,0,1.4,0.2,2,0.5c0.5,0.3,0.9,0.8,1.2,1.4c0.2,0.5,0.3,1.2,0.3,2.2v6.8h-2.8v-6.1     c0-1.1-0.1-1.7-0.3-2c-0.3-0.4-0.7-0.6-1.2-0.6c-0.4,0-0.8,0.1-1.1,0.4c-0.3,0.2-0.6,0.6-0.7,1.1c-0.2,0.5-0.2,1.2-0.2,2.2v5.1     h-2.8v-5.8c0-1-0.1-1.7-0.2-2c-0.1-0.3-0.3-0.5-0.5-0.7s-0.5-0.2-0.9-0.2c-0.4,0-0.8,0.1-1.2,0.3c-0.3,0.2-0.6,0.6-0.7,1     c-0.2,0.4-0.2,1.2-0.2,2.2v5.2h-2.8V130.3z"></path>				<path d="M627,128.9v-2.6h2.8v2.6H627z M627,140.9v-10.6h2.8v10.6H627z"></path>				<path d="M637.8,130.3v2.2h-1.9v4.3c0,0.9,0,1.4,0.1,1.5c0,0.1,0.1,0.3,0.2,0.4c0.1,0.1,0.3,0.1,0.5,0.1c0.3,0,0.6-0.1,1.1-0.3     l0.2,2.2c-0.7,0.3-1.4,0.4-2.2,0.4c-0.5,0-1-0.1-1.4-0.3c-0.4-0.2-0.7-0.4-0.9-0.7s-0.3-0.6-0.4-1.1c-0.1-0.3-0.1-1-0.1-2v-4.6     h-1.3v-2.2h1.3v-2.1l2.8-1.6v3.7H637.8z"></path>				<path d="M646.1,137.6l2.8,0.5c-0.4,1-0.9,1.8-1.7,2.3c-0.8,0.5-1.7,0.8-2.9,0.8c-1.8,0-3.2-0.6-4.1-1.8c-0.7-1-1-2.2-1-3.7     c0-1.8,0.5-3.1,1.4-4.1c0.9-1,2.1-1.5,3.5-1.5c1.6,0,2.8,0.5,3.7,1.6c0.9,1,1.3,2.6,1.3,4.8h-7c0,0.8,0.2,1.5,0.7,1.9     c0.4,0.5,1,0.7,1.6,0.7c0.4,0,0.8-0.1,1.1-0.4C645.7,138.5,645.9,138.1,646.1,137.6z M646.2,134.7c0-0.8-0.2-1.4-0.6-1.9     s-0.9-0.6-1.5-0.6c-0.6,0-1.1,0.2-1.5,0.7c-0.4,0.4-0.6,1.1-0.6,1.8H646.2z"></path>				<path d="M661.2,140.9h-2.6v-1.6c-0.4,0.6-0.9,1.1-1.5,1.4c-0.6,0.3-1.2,0.4-1.8,0.4c-1.2,0-2.3-0.5-3.1-1.5     c-0.9-1-1.3-2.4-1.3-4.1c0-1.8,0.4-3.2,1.3-4.1c0.8-0.9,1.9-1.4,3.2-1.4c1.2,0,2.2,0.5,3.1,1.5v-5.3h2.8V140.9z M653.8,135.4     c0,1.1,0.2,1.9,0.5,2.5c0.5,0.7,1.1,1.1,1.9,1.1c0.6,0,1.2-0.3,1.6-0.8c0.5-0.5,0.7-1.4,0.7-2.5c0-1.2-0.2-2.1-0.7-2.6     c-0.4-0.5-1-0.8-1.7-0.8c-0.7,0-1.2,0.3-1.7,0.8C654,133.6,653.8,134.3,653.8,135.4z"></path>				<path d="M669.4,136.2l2.9-0.3c0.2,1,0.5,1.7,1.1,2.1c0.5,0.5,1.2,0.7,2.1,0.7c1,0,1.7-0.2,2.2-0.6c0.5-0.4,0.7-0.9,0.7-1.4     c0-0.3-0.1-0.6-0.3-0.9c-0.2-0.2-0.6-0.5-1.1-0.6c-0.3-0.1-1.1-0.3-2.4-0.6c-1.6-0.4-2.7-0.9-3.3-1.4c-0.9-0.8-1.3-1.8-1.3-2.9     c0-0.7,0.2-1.4,0.6-2.1c0.4-0.6,1-1.1,1.8-1.5c0.8-0.3,1.8-0.5,2.9-0.5c1.8,0,3.2,0.4,4.1,1.2c0.9,0.8,1.4,1.9,1.5,3.2l-3,0.1     c-0.1-0.8-0.4-1.3-0.8-1.6s-1-0.5-1.9-0.5c-0.9,0-1.5,0.2-2,0.5c-0.3,0.2-0.5,0.5-0.5,0.9c0,0.3,0.1,0.6,0.4,0.9     c0.4,0.3,1.3,0.6,2.7,1c1.4,0.3,2.5,0.7,3.2,1.1c0.7,0.4,1.2,0.9,1.6,1.5c0.4,0.6,0.6,1.4,0.6,2.3c0,0.8-0.2,1.6-0.7,2.4     c-0.5,0.7-1.1,1.3-2,1.6c-0.9,0.4-1.9,0.5-3.2,0.5c-1.8,0-3.3-0.4-4.3-1.3C670.1,139,669.6,137.8,669.4,136.2z"></path>				<path d="M688.8,130.3v2.2h-1.9v4.3c0,0.9,0,1.4,0.1,1.5c0,0.1,0.1,0.3,0.2,0.4c0.1,0.1,0.3,0.1,0.5,0.1c0.3,0,0.6-0.1,1.1-0.3     l0.2,2.2c-0.7,0.3-1.4,0.4-2.2,0.4c-0.5,0-1-0.1-1.4-0.3c-0.4-0.2-0.7-0.4-0.9-0.7s-0.3-0.6-0.4-1.1c-0.1-0.3-0.1-1-0.1-2v-4.6     h-1.3v-2.2h1.3v-2.1l2.8-1.6v3.7H688.8z"></path>				<path d="M690.3,135.5c0-0.9,0.2-1.8,0.7-2.7c0.5-0.9,1.1-1.5,2-2c0.8-0.5,1.8-0.7,2.8-0.7c1.6,0,2.9,0.5,3.9,1.6     s1.5,2.4,1.5,3.9c0,1.6-0.5,2.9-1.6,4c-1,1.1-2.3,1.6-3.9,1.6c-1,0-1.9-0.2-2.8-0.7c-0.9-0.4-1.6-1.1-2-1.9     S690.3,136.7,690.3,135.5z M693.2,135.6c0,1.1,0.2,1.9,0.7,2.4c0.5,0.6,1.1,0.8,1.8,0.8s1.3-0.3,1.8-0.8     c0.5-0.6,0.7-1.4,0.7-2.4c0-1-0.2-1.8-0.7-2.4c-0.5-0.6-1.1-0.8-1.8-0.8s-1.3,0.3-1.8,0.8C693.4,133.8,693.2,134.6,693.2,135.6z     "></path>				<path d="M712.9,133.5l-2.8,0.5c-0.1-0.6-0.3-1-0.6-1.2c-0.3-0.3-0.8-0.4-1.3-0.4c-0.7,0-1.3,0.2-1.7,0.7s-0.6,1.3-0.6,2.4     c0,1.3,0.2,2.1,0.6,2.7c0.4,0.5,1,0.8,1.7,0.8c0.5,0,1-0.2,1.3-0.5c0.3-0.3,0.6-0.8,0.7-1.6l2.8,0.5c-0.3,1.3-0.8,2.2-1.6,2.9     c-0.8,0.6-1.9,1-3.3,1c-1.5,0-2.8-0.5-3.7-1.5c-0.9-1-1.4-2.3-1.4-4.1c0-1.8,0.5-3.1,1.4-4.1c0.9-1,2.2-1.5,3.8-1.5     c1.3,0,2.3,0.3,3.1,0.8C712,131.5,712.5,132.3,712.9,133.5z"></path>				<path d="M715.1,140.9v-14.6h2.8v7.8l3.3-3.7h3.5l-3.6,3.9l3.9,6.7h-3l-2.7-4.8l-1.3,1.4v3.4H715.1z"></path>				<path d="M742,135.5l2.9,0.9c-0.4,1.6-1.2,2.8-2.2,3.6s-2.3,1.2-3.9,1.2c-1.9,0-3.5-0.7-4.8-2c-1.3-1.3-1.9-3.1-1.9-5.4     c0-2.4,0.6-4.3,1.9-5.7c1.3-1.3,2.9-2,5-2c1.8,0,3.2,0.5,4.4,1.6c0.7,0.6,1.2,1.5,1.5,2.7l-2.9,0.7c-0.2-0.8-0.5-1.4-1.1-1.8     c-0.5-0.4-1.2-0.7-2-0.7c-1.1,0-2,0.4-2.6,1.2c-0.7,0.8-1,2-1,3.8c0,1.9,0.3,3.2,1,4c0.7,0.8,1.5,1.2,2.6,1.2     c0.8,0,1.5-0.3,2-0.7S741.8,136.6,742,135.5z"></path>				<path d="M747,135.5c0-0.9,0.2-1.8,0.7-2.7c0.5-0.9,1.1-1.5,2-2c0.8-0.5,1.8-0.7,2.8-0.7c1.6,0,2.9,0.5,3.9,1.6s1.5,2.4,1.5,3.9     c0,1.6-0.5,2.9-1.6,4c-1,1.1-2.3,1.6-3.9,1.6c-1,0-1.9-0.2-2.8-0.7c-0.9-0.4-1.6-1.1-2-1.9S747,136.7,747,135.5z M749.9,135.6     c0,1.1,0.2,1.9,0.7,2.4c0.5,0.6,1.1,0.8,1.8,0.8s1.3-0.3,1.8-0.8c0.5-0.6,0.7-1.4,0.7-2.4c0-1-0.2-1.8-0.7-2.4     c-0.5-0.6-1.1-0.8-1.8-0.8s-1.3,0.3-1.8,0.8C750.1,133.8,749.9,134.6,749.9,135.6z"></path>				<path d="M770,140.9h-2.6v-1.6c-0.4,0.6-0.9,1.1-1.5,1.4c-0.6,0.3-1.2,0.4-1.8,0.4c-1.2,0-2.3-0.5-3.1-1.5     c-0.9-1-1.3-2.4-1.3-4.1c0-1.8,0.4-3.2,1.3-4.1c0.8-0.9,1.9-1.4,3.2-1.4c1.2,0,2.2,0.5,3.1,1.5v-5.3h2.8V140.9z M762.6,135.4     c0,1.1,0.2,1.9,0.5,2.5c0.5,0.7,1.1,1.1,1.9,1.1c0.6,0,1.2-0.3,1.6-0.8c0.5-0.5,0.7-1.4,0.7-2.5c0-1.2-0.2-2.1-0.7-2.6     c-0.4-0.5-1-0.8-1.7-0.8c-0.7,0-1.2,0.3-1.7,0.8C762.8,133.6,762.6,134.3,762.6,135.4z"></path>				<path d="M779.2,137.6l2.8,0.5c-0.4,1-0.9,1.8-1.7,2.3c-0.8,0.5-1.7,0.8-2.9,0.8c-1.8,0-3.2-0.6-4.1-1.8c-0.7-1-1-2.2-1-3.7     c0-1.8,0.5-3.1,1.4-4.1c0.9-1,2.1-1.5,3.5-1.5c1.6,0,2.8,0.5,3.7,1.6c0.9,1,1.3,2.6,1.3,4.8h-7c0,0.8,0.2,1.5,0.7,1.9     c0.4,0.5,1,0.7,1.6,0.7c0.4,0,0.8-0.1,1.1-0.4C778.8,138.5,779,138.1,779.2,137.6z M779.3,134.7c0-0.8-0.2-1.4-0.6-1.9     s-0.9-0.6-1.5-0.6c-0.6,0-1.1,0.2-1.5,0.7c-0.4,0.4-0.6,1.1-0.6,1.8H779.3z"></path>				<path d="M785.1,133.1v-2.8h2.8v2.8H785.1z M785.1,140.9v-2.8h2.8v2.8H785.1z"></path>				<path d="M799.3,133c-0.7-0.3-1.3-0.7-1.6-1.3c-0.3-0.5-0.5-1.1-0.5-1.8c0-1.1,0.4-2,1.1-2.7c0.8-0.7,1.8-1.1,3.2-1.1     c1.4,0,2.5,0.4,3.2,1.1c0.8,0.7,1.2,1.6,1.2,2.7c0,0.7-0.2,1.3-0.5,1.8c-0.4,0.5-0.8,0.9-1.5,1.2c0.8,0.3,1.4,0.8,1.9,1.4     c0.4,0.6,0.6,1.3,0.6,2.2c0,1.4-0.4,2.4-1.3,3.3c-0.9,0.8-2,1.3-3.4,1.3c-1.3,0-2.4-0.3-3.3-1c-1-0.8-1.6-2-1.6-3.4     c0-0.8,0.2-1.5,0.6-2.2S798.4,133.4,799.3,133z M799.6,136.5c0,0.8,0.2,1.4,0.6,1.8c0.4,0.4,0.9,0.6,1.5,0.6     c0.6,0,1.1-0.2,1.4-0.6c0.4-0.4,0.6-1,0.6-1.8c0-0.7-0.2-1.2-0.6-1.7s-0.9-0.6-1.5-0.6c-0.7,0-1.2,0.2-1.5,0.7     C799.8,135.4,799.6,135.9,799.6,136.5z M799.9,130.2c0,0.6,0.2,1,0.5,1.3c0.3,0.3,0.7,0.5,1.3,0.5c0.5,0,1-0.2,1.3-0.5     c0.3-0.3,0.5-0.8,0.5-1.3c0-0.5-0.2-0.9-0.5-1.3c-0.3-0.3-0.7-0.5-1.3-0.5c-0.5,0-1,0.2-1.3,0.5S799.9,129.7,799.9,130.2z"></path>				<path d="M813.2,126.2c1.4,0,2.5,0.5,3.3,1.5c1,1.2,1.4,3.2,1.4,6c0,2.8-0.5,4.8-1.4,6c-0.8,1-1.9,1.5-3.3,1.5     c-1.4,0-2.6-0.5-3.4-1.6c-0.9-1.1-1.3-3-1.3-5.9c0-2.8,0.5-4.7,1.4-5.9C810.7,126.7,811.8,126.2,813.2,126.2z M813.2,128.6     c-0.3,0-0.6,0.1-0.9,0.3c-0.3,0.2-0.5,0.6-0.6,1.2c-0.2,0.7-0.3,1.9-0.3,3.7s0.1,2.9,0.3,3.5c0.2,0.6,0.4,1.1,0.7,1.3     s0.6,0.3,0.9,0.3c0.3,0,0.6-0.1,0.9-0.3c0.3-0.2,0.5-0.6,0.6-1.2c0.2-0.7,0.3-1.9,0.3-3.7s-0.1-2.9-0.3-3.5     c-0.2-0.6-0.4-1.1-0.7-1.3C813.8,128.7,813.5,128.6,813.2,128.6z"></path>				<path d="M827.2,140.9h-2.8v-10.6c-1,1-2.2,1.7-3.6,2.1v-2.5c0.7-0.2,1.5-0.7,2.4-1.4c0.9-0.7,1.4-1.4,1.8-2.3h2.3V140.9z"></path>				<path d="M831.5,137l2.7-0.3c0.1,0.7,0.3,1.2,0.7,1.6c0.4,0.4,0.8,0.5,1.4,0.5c0.6,0,1.1-0.2,1.5-0.7c0.4-0.4,0.6-1,0.6-1.8     c0-0.7-0.2-1.3-0.6-1.7c-0.4-0.4-0.8-0.6-1.4-0.6c-0.4,0-0.8,0.1-1.3,0.2l0.3-2.3c0.8,0,1.3-0.1,1.7-0.5     c0.4-0.3,0.6-0.8,0.6-1.4c0-0.5-0.1-0.9-0.4-1.2c-0.3-0.3-0.7-0.4-1.2-0.4c-0.5,0-0.9,0.2-1.2,0.5c-0.3,0.3-0.5,0.8-0.6,1.5     l-2.6-0.4c0.2-0.9,0.5-1.6,0.8-2.1c0.4-0.5,0.9-0.9,1.5-1.2c0.6-0.3,1.4-0.5,2.2-0.5c1.4,0,2.5,0.4,3.3,1.3c0.7,0.7,1,1.5,1,2.4     c0,1.3-0.7,2.3-2.1,3.1c0.8,0.2,1.5,0.6,2,1.2c0.5,0.6,0.8,1.4,0.8,2.3c0,1.3-0.5,2.4-1.4,3.3c-0.9,0.9-2.1,1.4-3.5,1.4     c-1.3,0-2.4-0.4-3.3-1.1C832.1,139.3,831.6,138.3,831.5,137z"></path>				<path d="M843,145.2c0.6-1.2,0.9-2.1,1.2-2.7c0.2-0.6,0.4-1.4,0.6-2.2c0.2-0.8,0.3-1.6,0.4-2.4c0.1-0.7,0.1-1.5,0.1-2.3     c0-1.6-0.2-3.1-0.5-4.5c-0.3-1.4-1-3.1-1.9-5.1h1.9c1,1.4,1.8,2.9,2.3,4.6s0.8,3.2,0.8,4.9c0,1.4-0.2,2.9-0.7,4.5     c-0.5,1.8-1.3,3.5-2.5,5.3H843z"></path>			</g>		</g>		<g>			<circle class="st2" cx="86.6" cy="86.5" r="86.5"></circle>			<g>				<defs>					<circle id="SVGID_3_" cx="86.6" cy="86.5" r="86.5"></circle>				</defs>				<clipPath id="SVGID_2_">					<use xlink:href="#SVGID_3_" style="overflow:visible;"></use>				</clipPath>				<g class="st3">					<path d="M0,86.5c0,31.1,16.4,58.3,41,73.5v-147C16.4,28.2,0,55.4,0,86.5z"></path>					<path d="M107.4,2.5V43h25.1v24.8h-5.4V55.6h-12.4v68.2h12.4v-12.4h5.4v25h-25.1v-9.1H67.9v19.9h39.5v23.2      c37.7-9.3,65.8-43.3,65.8-84C173.1,45.8,145.1,11.8,107.4,2.5z"></path>					<rect x="67.9" y="28.6" width="12.5" height="68.2"></rect>					<polygon class="st4" points="132.5,136.4 132.5,111.4 127.1,111.4 127.1,123.8 114.7,123.8 114.7,55.6 127.1,55.6 127.1,67.8       132.5,67.8 132.5,43 107.4,43 107.4,127.3 107.4,136.4      "></polygon>					<circle class="st1" cx="86.6" cy="86.5" r="86.5"></circle>				</g>			</g>		</g>	</g></g></svg>